# xmcd
#
# Track frame offsets:
# 150
# 12179
# 40682
# 54275
# 64803
# 80153
# 92389
# 104481
# 122418
#
# Disc length: 1768 seconds
#
#
# Revision: 0
# Processed by: cddbd v1.5.1PL0 Copyright (c) Steve Scherf et al.
# Submitted via: FreeRIP 2.93 
#
DISCID=6606e609
DTITLE=Hayseed's Dixie      - A Hillbilly Tribute to AC/DC
DYEAR=1900
DGENRE=Indie
TTITLE0=highway to hell
TTITLE1=you shook me all night long
TTITLE2=hell' s blues
TTITLE3=money talks
TTITLE4=let's get it up
TTITLE5=have a drink on me
TTITLE6=tnt
TTITLE7=back in black
TTITLE8=big balls
EXTD=
EXTT0=
EXTT1=
EXTT2=
EXTT3=
EXTT4=
EXTT5=
EXTT6=
EXTT7=
EXTT8=
PLAYORDER=
